<svg version="1" xmlns="http://www.w3.org/2000/svg" width="933.333" height="933.333" viewBox="0 0 700.000000 700.000000"><path d="M0 350v350h700V0H0v350zm107-114.5V257H92.1l-.3 25.2-.3 25.3-2.7 4.5c-1.4 2.5-4 5.8-5.7 7.4l-3 2.9 4 4.6c7.5 8.5 7.4 7.6 7.7 37.3l.3 26.8H107v43H78.5c-29.9 0-33.1-.4-34-4.4-.3-1.2-.6-18.1-.7-37.6-.3-32.3-.5-35.8-2.1-38.9-2.3-4.1-8.2-9.6-11.9-11.2l-2.8-1.1v-18.4c0-18.1 0-18.3 2.3-18.9 4.1-1.3 8.2-5.2 11.2-10.6l3-5.4.3-34.7.3-34.7 2.6-2.1c2.4-1.9 4-2 31.4-2H107v21.5zM653.3 216l2.6 2.1.3 34.7c.3 34.7.3 34.7 2.8 39.6 2.7 5.2 6.9 9.3 11.2 10.8l2.8 1v36.5l-2.6 1.2c-4.8 2.1-9.5 6.4-11.7 10.5-2.1 4-2.2 5.3-2.5 39.6-.1 19.5-.4 36.4-.7 37.6-.9 4-4.1 4.4-34 4.4H593v-43h14.9l.3-26.8c.3-29.7.2-28.8 7.6-37.3l4.1-4.6-3.9-3.8c-7.3-7.1-7.4-8-7.8-36.3l-.4-25.2H593v-43h28.9c27.5 0 29 .1 31.4 2zM382 239.5V262h-54v-45h54v22.5zm-127.6-13.2c23 9.1 38.8 27.2 44.8 51 2.7 10.7 2.1 27.8-1.2 37.7-4.3 12.7-12 24.6-20.4 31.4-2.5 2.1-4.6 4.2-4.6 4.7 0 .8 33.3 59.3 40.2 70.6l2 3.3h-63.1l-17.7-31-17.7-31H196v62h-56V222.9l53.8.3 53.7.3 6.9 2.8zm267.3 48.3c11.6 3 20.2 8 29.4 17.3 7.2 7.1 9.4 10.2 13.3 18.1 5.4 11.1 8.4 22.1 9.2 34 1.2 17-3.5 38.4-11.3 52-4.8 8.2-17 20.6-24.4 24.8-15.5 8.8-38 9.4-54.5 1.6-5.6-2.6-15.2-11.1-18.7-16.4-1.5-2.3-1.6.2-1.6 38.7L463 486h-54V275h46.9l.3 11.1.3 11.1 3.5-4.7c1.9-2.5 5.8-6.4 8.6-8.6 8.5-6.5 14.7-9 28.4-11.3 4.3-.7 18.7.4 24.7 2zM382 350v75h-54V275h54v75z"/><path d="M196 292.4V314h19.4c18.1 0 19.5-.1 22-2.1 3.9-3.1 6.6-9.1 7.3-16.2.8-8.6-.9-14-6.2-19.6l-4.4-4.6-19-.3-19.1-.3v21.5zM479.5 319.8c-3.4 1.1-6.7 3.4-10.7 7.4L463 333v13.2c0 12.9.1 13.4 3 18.5 8.9 15.5 23.9 21.4 36.5 14.5 12.7-7 18.8-25.3 14-41.8-1.3-4.4-2.8-6.9-6.9-10.9-8.1-8.1-18.8-10.5-30.1-6.7z"/></svg>